<?xml version="1.0" standalone="no"?>
<svg width="64" height="64" viewBox="0 0 384 384" version="1.1" xmlns="http://www.w3.org/2000/svg">
  <path d="M342 192c0 69 -45 128 -107 147v45c85 -20 149 -99 149 -192c0 -35 -8 -68 -24 -96l-32 32c9 19 14 41 14 64zM192 368v-104l-51 51zM357 51v0l24 -24l-24 -24l-40 40c-23 -21 -51 -36 -82 -43v45c19 6 37 15 52 28l-95 95v-152l-107 112h-85v128h85l9 10l-91 91l24 24z M288 192c0 -7 0 -15 -2 -22l-51 51v60c32 -16 53 -51 53 -89z" transform="matrix(1,0,0,-1,0,384)"/>
</svg>